<mxfile host="app.diagrams.net" modified="2024-01-18T10:06:52.505Z" agent="Mozilla/5.0 (X11; Linux x86_64) AppleWebKit/537.36 (KHTML, like Gecko) Chrome/120.0.0.0 Safari/537.36" version="22.1.20" etag="DyK-2gTBpFgSOunpiWaP" type="github">
  <diagram name="Page-1" id="UrZeXDbGV69RrI5Io3Zl">
    <mxGraphModel>
      <root>
        <mxCell id="0" />
        <mxCell id="1" parent="0" />
      </root>
    </mxGraphModel>
  </diagram>
</mxfile>
